<svg width="500" height="96" viewBox="0 0 500 96" fill="none" xmlns="http://www.w3.org/2000/svg">
<path d="M44.1064 26.9821C43.0428 22.7658 42.3035 18.5196 42.3035 14.3223C42.3035 13.7349 42.3143 13.1509 42.3442 12.5709C42.5599 8.27662 43.6791 4.02435 46.1033 0C39.5408 3.13035 34.1273 6.97902 29.736 11.2733C35.6066 16.1998 40.3737 21.5204 44.1064 26.9821Z" fill="#C80078"/>
<path d="M147.76 30.5812C151.318 30.5812 154.319 27.6367 154.319 24.1564C154.319 20.676 151.321 17.821 147.571 17.821C143.919 17.821 140.923 20.6801 140.923 24.1564C140.923 27.7256 143.92 30.5812 147.761 30.5812" fill="#C80078"/>
<path d="M186.17 73.7808C181.485 72.7993 179.946 72.8515 179.969 66.8208V20.7724C179.969 17.9174 179.876 17.8279 177.441 17.8279H164.605C163.293 17.8279 162.825 18.0992 162.453 18.8989L162.077 19.9693C161.98 20.2372 161.891 20.5051 161.891 20.594C161.891 21.0369 162.36 21.3937 163.204 21.5755C167.884 22.5611 168.075 22.8215 168.075 28.5321V66.8214C168.075 71.3722 167.223 72.7593 164.326 73.5102C162.567 73.9714 161.133 73.9938 158.987 73.7815C154.443 73.3318 153.849 72.5327 153.849 66.8214V38.0059C153.849 35.3294 153.663 35.0574 151.224 35.0574H138.486C137.173 35.0574 136.705 35.2398 136.426 36.1325L135.957 37.1994C135.861 37.4667 135.771 37.7346 135.771 37.8275C135.771 38.2698 136.24 38.6272 137.08 38.809C141.858 39.8801 141.951 40.0551 141.951 45.7657V66.8214C141.951 71.3722 141.107 72.8 138.203 73.5102C136.24 74.0494 135.4 73.8378 135.024 74.9421L134.567 76.494C134.444 77.1852 134.861 77.4979 136.244 77.5277H184.858C186.079 77.5277 186.547 77.2598 186.922 76.4533L187.294 75.3002C187.606 74.4001 187.015 73.9619 186.171 73.7828" fill="#C80078"/>
<path d="M204.229 56.8301C204.229 64.95 207.79 71.0147 212.568 71.0147C219.127 71.0147 224.466 62.0055 224.466 50.9438C224.466 42.6455 221.934 38.7188 216.692 38.7188C209.475 38.7188 204.229 46.3035 204.229 56.8294V56.8301ZM224.466 67.3553C220.908 74.4048 214.818 78.5092 208.073 78.5092C198.893 78.5092 191.676 69.8575 191.676 58.7924C191.676 44.6078 203.013 33.989 218.19 33.989C223.812 33.989 231.118 35.6848 234.115 37.6471C235.896 38.8965 236.271 40.0564 236.271 44.4301V66.8201C236.271 72.5313 236.989 72.7097 241.765 73.7808C242.511 73.9592 242.981 74.316 242.981 74.7623C242.981 74.8511 242.888 75.1191 242.795 75.2975L242.327 76.4574C242.044 77.35 241.581 77.5284 240.36 77.5284H227.37C224.934 77.5284 224.466 76.9037 224.466 74.048V67.3553Z" fill="#C80078"/>
<path d="M92.5085 17.3515L78.2127 17.3556C73.2075 17.3556 71.9723 22.9855 71.9587 23.1672C71.8509 23.8957 72.2748 24.3007 73.3716 24.3007C76.8438 24.3007 80.7108 23.7357 85.6563 23.7357C106.214 23.7357 115.914 27.9954 115.914 49.1339C115.914 64.7463 111.679 70.229 107.028 72.1045C100.856 74.5993 96.9147 73.6294 95.5575 72.618C93.4832 71.0749 93.4493 67.6318 93.4493 61.2402C93.4493 61.2402 93.4459 32.5325 93.4493 31.57C93.4527 30.6075 92.9589 30.4583 92.1707 30.3728C88.9915 30.0303 80.9903 30.1693 80.9903 34.8496V69.8037C80.9903 76.5555 81.2209 77.3661 86.6568 78.0871C91.6165 78.8048 129.458 85.3117 129.225 46.207C129.225 25.6274 116.208 17.3508 92.5051 17.3508" fill="#C80078"/>
<path d="M261.917 61.1508C261.917 70.3384 264.449 73.9116 270.628 73.9116C278.031 73.9116 283.839 66.0549 283.839 55.6186C283.839 46.8773 279.808 41.0765 273.811 41.0765C266.319 41.0765 261.917 48.5724 261.917 61.1542V61.1508ZM261.917 43.0436C266.04 37.2434 271.941 34.1199 278.968 34.1199C289.364 34.1199 296.387 41.9725 296.387 53.391C296.387 67.9324 285.055 78.3728 269.408 78.3728C267.163 78.3728 265.289 78.1944 261.917 77.4802V85.5709C261.879 92.379 262.619 95.4687 251.514 95.4687C251.023 95.4687 250.58 95.4239 250.58 94.2478V45.8022C250.58 40.0916 250.394 39.8237 245.713 38.8463C244.866 38.6672 244.401 38.3104 244.401 37.8641C244.401 37.7712 244.494 37.5073 244.587 37.2401L245.055 36.169C245.338 35.2764 245.802 35.098 247.023 35.098H259.203C261.824 35.098 261.917 35.1875 261.917 37.8641V43.0436Z" fill="#C80078"/>
<path d="M324.335 71.0514C319.56 71.0514 315.999 64.9874 315.999 56.8668C315.999 46.3409 321.245 38.7561 328.458 38.7561C333.704 38.7561 336.233 42.6822 336.233 50.9812C336.233 62.0429 330.893 71.0514 324.335 71.0514ZM410.249 73.7395C405.564 72.758 404.832 72.5687 404.832 66.8615V51.1561C404.832 44.11 404.363 41.6118 402.772 39.1129C400.522 35.7214 397.058 34.1159 392.09 34.1159C385.159 34.1159 379.355 37.1499 374.481 43.3964V37.8635C374.481 35.2758 374.295 35.0974 371.763 35.0974H359.021C357.809 35.0974 357.337 35.2758 357.058 36.1684L356.589 37.2388C356.497 37.5067 356.404 37.7747 356.404 37.8635C356.404 38.3098 356.868 38.6666 357.619 38.845C362.397 39.8272 362.583 40.0944 362.583 45.8057V66.8622C362.583 71.4068 361.754 72.893 358.835 73.5509C356.482 74.0827 355.021 74.0935 352.923 73.8901C348.86 73.5109 348.04 72.5667 348.04 66.8595V44.4634C348.04 40.0944 347.66 38.9346 345.883 37.6851C342.886 35.7221 335.581 34.0264 329.959 34.0264C314.785 34.0264 303.445 44.6458 303.445 58.8304C303.445 69.8955 310.662 78.5473 319.842 78.5473C326.586 78.5473 332.673 74.4422 336.235 67.3967V74.0895C336.235 76.9383 336.703 77.5691 339.139 77.5691H377.48C378.792 77.5691 379.261 77.3874 379.54 76.4947L380.008 75.3348C380.105 75.0669 380.198 74.8885 380.198 74.7101C380.198 74.3533 379.819 73.9999 379.168 73.8181C374.39 72.5687 374.483 72.7471 374.483 66.8615V62.578C374.483 49.4645 378.792 41.6973 386.102 41.6973C391.252 41.6973 392.936 44.6458 392.936 54.0118V66.8622C392.936 71.4984 392.375 72.7478 389.753 73.5509C387.786 74.1756 387.786 74.1756 387.504 74.9787L387.129 76.1386C387.035 76.4065 387.035 76.4954 387.035 76.7633C387.035 77.388 387.504 77.5698 388.723 77.5698H408.793C410.01 77.5698 410.478 77.388 410.761 76.4954C410.761 76.4954 411.273 75.1496 411.352 74.9448C411.616 74.2387 411.092 73.9192 410.251 73.7401" fill="#C80078"/>
<path d="M483.936 31.8523C484.011 33.2909 483.792 33.5995 483.185 33.8152C483.185 33.8152 481.735 34.2351 480.873 34.4698C480.394 34.6055 480.003 34.3545 479.814 33.995C479.441 33.4591 477.144 22.4205 468.209 22.4205C462.87 22.4205 458.49 25.2463 458.49 31.1394C458.49 38.3226 467.02 40.9401 472.723 44.0521C482.115 49.1719 486.26 53.6636 486.26 61.5523C486.26 71.6318 477.171 78.5437 462.84 78.5437C458.531 78.5437 454.036 77.919 449.726 76.7591C446.165 75.7776 445.789 75.4208 445.789 73.1003V62.2326C445.789 60.9276 445.886 60.4521 446.73 60.1801L448.832 59.4889C449.044 59.4213 449.265 59.391 449.487 59.3993C450.048 59.4889 450.428 59.9352 450.708 61.0022C452.994 69.7807 456.202 73.0264 461.999 73.3723C468.491 73.759 474.741 71.3313 474.741 64.2702C474.741 58.9273 471.321 57.5774 462.293 52.421C455.006 48.2529 446.557 45.2928 446.624 34.2059C446.673 25.5054 455.474 17.5198 467.929 17.5198C473.176 17.5198 479.799 18.9442 482.329 20.7322C483.17 21.3569 483.266 21.6242 483.266 23.227L483.936 31.8523Z" fill="#C80078"/>
<path d="M433.722 57.6744H413.886C413.154 57.6853 412.979 57.3027 413.15 56.5179C413.89 53.1977 414.032 50.7524 417.742 50.4763L438.11 49.3422C438.831 49.2791 439.118 49.5762 438.946 50.3271C437.957 54.6587 437.805 57.6744 433.723 57.6744" fill="#C80078"/>
<path d="M494.211 28.7234C495.743 28.7244 497.214 28.1174 498.299 27.0354C499.384 25.9534 499.996 24.485 500 22.9524V22.9192C500.002 22.163 499.854 21.4139 499.565 20.7151C499.276 20.0164 498.852 19.3817 498.316 18.8477C497.781 18.3137 497.145 17.8909 496.446 17.6038C495.746 17.3166 494.997 17.1708 494.24 17.1746C492.707 17.1743 491.236 17.7825 490.15 18.8658C489.065 19.9491 488.454 21.4189 488.451 22.9524V22.9822C488.45 23.7381 488.598 24.4868 488.887 25.1852C489.176 25.8836 489.601 26.5179 490.136 27.0515C490.671 27.5852 491.307 28.0076 492.006 28.2945C492.706 28.5815 493.455 28.7272 494.211 28.7234V28.7234ZM494.211 28.2289C491.226 28.2289 488.98 25.8711 488.98 22.9822V22.9524C488.98 20.0635 491.244 17.6691 494.24 17.6691C497.225 17.6691 499.476 20.0303 499.476 22.9192V22.9524C499.476 25.8379 497.211 28.2289 494.211 28.2289V28.2289ZM491.963 25.3916C491.963 25.4483 491.974 25.5045 491.996 25.557C492.017 25.6094 492.049 25.6571 492.089 25.6972C492.129 25.7373 492.177 25.7691 492.229 25.7907C492.282 25.8122 492.338 25.8232 492.395 25.823C492.511 25.8234 492.622 25.7785 492.705 25.6979C492.789 25.6173 492.837 25.5074 492.84 25.3916V23.51H494.369L496.045 25.6297C496.084 25.692 496.138 25.7429 496.203 25.7769C496.268 25.8109 496.341 25.8268 496.414 25.823C496.525 25.8237 496.633 25.7804 496.713 25.7024C496.793 25.6245 496.839 25.5182 496.841 25.4065C496.839 25.2914 496.801 25.1797 496.733 25.087L495.328 23.3506C496.224 23.1423 496.841 22.5508 496.841 21.629V21.5958C496.846 21.3818 496.806 21.1692 496.724 20.9714C496.643 20.7736 496.521 20.595 496.366 20.4468C495.983 20.0635 495.362 19.8254 494.611 19.8254H492.395C492.339 19.8247 492.283 19.8353 492.23 19.8565C492.178 19.8777 492.13 19.9091 492.09 19.949C492.05 19.9888 492.018 20.0363 491.996 20.0885C491.975 20.1408 491.964 20.1969 491.964 20.2534L491.963 25.3916ZM492.84 22.7258V20.6231H494.581C495.425 20.6231 495.934 21.0172 495.934 21.6406V21.6745C495.934 22.3433 495.362 22.7265 494.532 22.7265L492.84 22.7258Z" fill="#C80078"/>
<path d="M13.6556 30.5411C15.9423 23.9667 19.4648 17.8901 24.0336 12.6387C18.5394 8.35117 12.0955 4.41363 4.64374 1.03027C7.31353 4.70055 8.36964 8.78255 8.36557 12.8951C8.36557 13.4045 8.34725 13.9125 8.32148 14.4192C8.08339 18.6579 6.96013 22.9658 5.63677 27.2059C8.36878 28.1676 11.045 29.2811 13.6529 30.5411" fill="#C80078"/>
<path d="M38.8881 64.1367C38.8881 64.6502 38.8698 65.167 38.8515 65.6764C38.4865 72.4764 35.7096 78.7792 31.1656 83.4526C34.276 82.5175 37.2623 81.2105 40.0595 79.5599C41.9628 78.2222 43.6665 76.621 45.1196 74.8043C47.8043 71.0933 49.4607 66.1519 49.7565 60.4115C49.7897 59.7644 49.8046 59.1098 49.8046 58.4519C49.8087 45.0778 42.7103 28.3503 26.539 14.6785C22.142 19.786 18.794 25.7095 16.686 32.1108C32.3248 40.7326 38.8867 52.9617 38.8867 64.1381" fill="#C80078"/>
<path d="M1.38645 41.0867C0.62811 44.2747 0.196712 47.2436 0.0556252 50.0138C0.0183187 50.7355 0 51.4491 0 52.1477C0.0033915 63.0344 4.41302 70.6049 10.2057 75.7207C15.2027 80.1296 21.3298 82.5918 26.4171 83.4533C31.64 79.3299 35.0315 72.8677 35.4113 65.6432C35.4296 65.2124 35.4412 64.7661 35.4412 64.3273C35.4371 54.4817 29.8974 43.4275 15.7501 35.3076C14.9104 38.5374 14.396 41.8432 14.2144 45.1755C14.1692 46.0301 14.1466 46.8778 14.1466 47.7184C14.1466 57.627 17.2553 66.5751 22.3154 72.1277C22.5489 72.3868 22.6786 72.7231 22.6796 73.0719C22.6796 73.5467 22.4381 74.0127 22.0013 74.3288C21.6785 74.5577 21.2928 74.6812 20.8971 74.6822C20.6576 74.6875 20.4197 74.6418 20.1991 74.5483C19.9786 74.4547 19.7804 74.3154 19.6178 74.1395C13.9289 67.8483 10.709 58.2999 10.709 47.808C10.709 46.9262 10.728 46.0376 10.7768 45.149C10.9798 41.257 11.6168 37.3998 12.6761 33.6491C10.0774 32.3587 7.40502 31.2224 4.67281 30.2461C3.45187 33.972 2.20041 37.6192 1.38577 41.0846" fill="#C80078"/>
</svg>
